<svg width="104" height="31" viewBox="0 0 104 31" fill="none" xmlns="http://www.w3.org/2000/svg">
<path d="M100.148 0.0385742H3.85185C1.72453 0.0385742 0 1.71751 0 3.78857V26.2886C0 28.3596 1.72453 30.0386 3.85185 30.0386H100.148C102.275 30.0386 104 28.3596 104 26.2886V3.78857C104 1.71751 102.275 0.0385742 100.148 0.0385742Z" fill="black"/>
<path d="M100.148 0.638574C101.006 0.638574 101.829 0.970448 102.436 1.56119C103.043 2.15193 103.384 2.95314 103.384 3.78857V26.2886C103.384 27.124 103.043 27.9252 102.436 28.516C101.829 29.1067 101.006 29.4386 100.148 29.4386H3.85185C2.99373 29.4386 2.17075 29.1067 1.56397 28.516C0.957184 27.9252 0.616296 27.124 0.616296 26.2886V3.78857C0.616296 2.95314 0.957184 2.15193 1.56397 1.56119C2.17075 0.970448 2.99373 0.638574 3.85185 0.638574H100.148ZM100.148 0.0385742H3.85185C2.83028 0.0385742 1.85054 0.433662 1.12818 1.13692C0.405819 1.84019 0 2.79401 0 3.78857V26.2886C0 27.2831 0.405819 28.237 1.12818 28.9402C1.85054 29.6435 2.83028 30.0386 3.85185 30.0386H100.148C101.17 30.0386 102.149 29.6435 102.872 28.9402C103.594 28.237 104 27.2831 104 26.2886V3.78857C104 2.79401 103.594 1.84019 102.872 1.13692C102.149 0.433662 101.17 0.0385742 100.148 0.0385742Z" fill="#A6A6A6"/>
<path d="M24.7387 14.5233C24.7174 12.2201 26.6757 11.0996 26.7653 11.0474C25.6562 9.47316 23.9371 9.25806 23.333 9.24091C21.8892 9.09299 20.4887 10.082 19.7532 10.082C19.0031 10.082 17.8705 9.2552 16.6498 9.2795C15.079 9.30308 13.6095 10.1885 12.8036 11.5634C11.1403 14.3668 12.3808 18.4865 13.9744 20.7525C14.7715 21.8623 15.703 23.1014 16.9222 23.0578C18.1149 23.0099 18.5605 22.3175 19.9999 22.3175C21.4261 22.3175 21.8444 23.0578 23.0879 23.0299C24.368 23.0099 25.1739 21.9151 25.9432 20.7954C26.8644 19.5234 27.2343 18.2707 27.249 18.2063C27.2189 18.1963 24.7629 17.2838 24.7387 14.5233Z" fill="white"/>
<path d="M22.3899 7.75026C23.0314 6.9692 23.4704 5.90659 23.3485 4.82825C22.42 4.86826 21.2588 5.45353 20.5901 6.21744C19.9985 6.8906 19.47 7.99395 19.6065 9.03155C20.6495 9.1073 21.7205 8.51918 22.3899 7.75026Z" fill="white"/>
<path d="M42.0002 22.8984H40.3332L39.4201 20.105H36.2462L35.3764 22.8984H33.7535L36.8981 13.3884H38.8403L42.0002 22.8984ZM39.1449 18.933L38.3191 16.4498C38.2318 16.1961 38.0681 15.5987 37.8266 14.6583H37.7972C37.7011 15.0627 37.5462 15.6602 37.3333 16.4498L36.5222 18.933H39.1449Z" fill="white"/>
<path d="M50.0867 19.3854C50.0867 20.5516 49.763 21.4735 49.1156 22.1502C48.5357 22.7526 47.8156 23.0535 46.9561 23.0535C46.0283 23.0535 45.3618 22.729 44.9559 22.0802H44.9266V25.6925H43.3616V18.2985C43.3616 17.5653 43.3418 16.8128 43.3036 16.041H44.6799L44.7673 17.128H44.7966C45.3185 16.309 46.1105 15.9003 47.1734 15.9003C48.0043 15.9003 48.6979 16.2197 49.2528 16.8593C49.8092 17.4996 50.0867 18.3414 50.0867 19.3854ZM48.4924 19.4411C48.4924 18.7737 48.3382 18.2234 48.0285 17.7904C47.6901 17.3388 47.2358 17.113 46.6662 17.113C46.2801 17.113 45.9292 17.2387 45.6158 17.4867C45.3016 17.7368 45.0961 18.0634 45 18.4678C44.9515 18.6565 44.9273 18.8109 44.9273 18.9323V20.0757C44.9273 20.5745 45.0844 20.9954 45.3985 21.3391C45.7127 21.6828 46.1208 21.8544 46.6229 21.8544C47.2123 21.8544 47.671 21.6328 47.9991 21.1912C48.328 20.7489 48.4924 20.1657 48.4924 19.4411Z" fill="white"/>
<path d="M58.1883 19.3854C58.1883 20.5516 57.8646 21.4735 57.2165 22.1502C56.6373 22.7526 55.9173 23.0535 55.0577 23.0535C54.1299 23.0535 53.4634 22.729 53.0583 22.0802H53.0289V25.6925H51.464V18.2985C51.464 17.5653 51.4442 16.8128 51.406 16.041H52.7823L52.8696 17.128H52.899C53.4201 16.309 54.2121 15.9003 55.2757 15.9003C56.1059 15.9003 56.7995 16.2197 57.3559 16.8593C57.9101 17.4996 58.1883 18.3414 58.1883 19.3854ZM56.594 19.4411C56.594 18.7737 56.4391 18.2234 56.1294 17.7904C55.791 17.3388 55.3381 17.113 54.7678 17.113C54.381 17.113 54.0308 17.2387 53.7167 17.4867C53.4025 17.7368 53.1977 18.0634 53.1016 18.4678C53.0539 18.6565 53.0289 18.8109 53.0289 18.9323V20.0757C53.0289 20.5745 53.186 20.9954 53.4987 21.3391C53.8128 21.6821 54.221 21.8544 54.7245 21.8544C55.3139 21.8544 55.7727 21.6328 56.1008 21.1912C56.4296 20.7489 56.594 20.1657 56.594 19.4411Z" fill="white"/>
<path d="M67.2459 20.2315C67.2459 21.0405 66.9575 21.6986 66.3783 22.2067C65.7419 22.762 64.856 23.0392 63.7175 23.0392C62.6664 23.0392 61.8238 22.842 61.1859 22.4468L61.5485 21.177C62.2356 21.5814 62.9894 21.7844 63.8108 21.7844C64.4002 21.7844 64.8589 21.6543 65.1885 21.3956C65.5166 21.137 65.6803 20.7897 65.6803 20.3566C65.6803 19.9707 65.5452 19.6456 65.2744 19.3819C65.005 19.1182 64.555 18.8731 63.9267 18.6466C62.2165 18.0256 61.3621 17.1159 61.3621 15.9196C61.3621 15.1378 61.6616 14.4968 62.2612 13.9981C62.8587 13.4985 63.6559 13.2491 64.6527 13.2491C65.5416 13.2491 66.28 13.3999 66.8694 13.7008L66.4782 14.9428C65.9276 14.6512 65.3052 14.5054 64.6086 14.5054C64.0581 14.5054 63.628 14.6376 63.3197 14.9006C63.0591 15.1357 62.9285 15.4223 62.9285 15.7617C62.9285 16.1376 63.0775 16.4484 63.3769 16.6928C63.6375 16.9186 64.111 17.163 64.798 17.4267C65.6384 17.7562 66.2558 18.1413 66.6529 18.583C67.0485 19.0232 67.2459 19.5741 67.2459 20.2315Z" fill="white"/>
<path d="M72.4199 17.1845H70.695V20.5138C70.695 21.3607 70.9989 21.7837 71.6081 21.7837C71.8878 21.7837 72.1197 21.7601 72.3032 21.713L72.3465 22.8699C72.0383 22.9821 71.6323 23.0385 71.1295 23.0385C70.5115 23.0385 70.0285 22.8549 69.6799 22.4883C69.3327 22.121 69.158 21.505 69.158 20.6396V17.1831H68.1304V16.0397H69.158V14.7841L70.695 14.3325V16.0397H72.4199V17.1845Z" fill="white"/>
<path d="M80.2026 19.4134C80.2026 20.4674 79.8928 21.3328 79.2748 22.0096C78.6267 22.7063 77.7664 23.0536 76.694 23.0536C75.6605 23.0536 74.8377 22.7199 74.224 22.0524C73.6104 21.385 73.3036 20.5425 73.3036 19.527C73.3036 18.4644 73.6192 17.594 74.2527 16.9173C74.8847 16.2398 75.7376 15.9011 76.81 15.9011C77.8435 15.9011 78.6751 16.2348 79.3027 16.903C79.9031 17.5511 80.2026 18.3879 80.2026 19.4134ZM78.5789 19.4627C78.5789 18.8303 78.4402 18.2879 78.1591 17.8356C77.831 17.2882 77.362 17.0152 76.7542 17.0152C76.1251 17.0152 75.6473 17.2889 75.3192 17.8356C75.0381 18.2886 74.8993 18.8396 74.8993 19.4913C74.8993 20.1237 75.0381 20.6661 75.3192 21.1177C75.6576 21.6651 76.1303 21.9381 76.7402 21.9381C77.3377 21.9381 77.8068 21.6594 78.1451 21.1034C78.4336 20.6425 78.5789 20.0944 78.5789 19.4627Z" fill="white"/>
<path d="M85.2891 17.3809C85.1342 17.3531 84.9691 17.3388 84.7959 17.3388C84.2453 17.3388 83.8196 17.541 83.5201 17.9462C83.2596 18.3035 83.1289 18.7551 83.1289 19.3004V22.8984H81.5647L81.5794 18.2006C81.5794 17.4102 81.5596 16.6906 81.5207 16.0418H82.8838L82.941 17.3538H82.9843C83.1495 16.9029 83.41 16.5398 83.7668 16.2676C84.1154 16.0225 84.492 15.9003 84.8979 15.9003C85.0425 15.9003 85.1731 15.9103 85.2891 15.9281V17.3809Z" fill="white"/>
<path d="M92.2879 19.1453C92.2879 19.4183 92.2695 19.6484 92.2306 19.8364H87.5359C87.5542 20.5138 87.781 21.0319 88.217 21.3892C88.6127 21.7086 89.1243 21.8687 89.7526 21.8687C90.4477 21.8687 91.0819 21.7608 91.6522 21.5443L91.8974 22.6019C91.2309 22.8849 90.444 23.0256 89.5361 23.0256C88.4438 23.0256 87.5865 22.7126 86.9626 22.0874C86.3402 21.4621 86.0282 20.6224 86.0282 19.5691C86.0282 18.5351 86.3181 17.674 86.8987 16.9872C87.5065 16.254 88.3279 15.8875 89.3614 15.8875C90.3765 15.8875 91.145 16.254 91.6669 16.9872C92.0801 17.5696 92.2879 18.29 92.2879 19.1453ZM90.7956 18.7502C90.8059 18.2985 90.7039 17.9084 90.4917 17.5789C90.2209 17.1552 89.8047 16.9436 89.2447 16.9436C88.733 16.9436 88.3169 17.1502 87.999 17.5646C87.7385 17.8941 87.5836 18.2892 87.5359 18.7494H90.7956V18.7502Z" fill="white"/>
<path d="M38.6275 7.53813C38.6275 8.37922 38.3684 9.01236 37.8509 9.43755C37.3716 9.82986 36.6905 10.0264 35.8082 10.0264C35.3707 10.0264 34.9963 10.0078 34.6829 9.97064V5.37502C35.0918 5.3107 35.5322 5.27783 36.0078 5.27783C36.8483 5.27783 37.4817 5.45577 37.9089 5.81164C38.3875 6.21396 38.6275 6.78922 38.6275 7.53813ZM37.8164 7.55885C37.8164 7.01361 37.6682 6.59556 37.3716 6.304C37.0751 6.01316 36.642 5.86738 36.0717 5.86738C35.8295 5.86738 35.6232 5.8831 35.4522 5.91597V9.40968C35.5469 9.42397 35.7201 9.4304 35.9719 9.4304C36.5605 9.4304 37.0149 9.27104 37.3349 8.95233C37.6549 8.63362 37.8164 8.16912 37.8164 7.55885Z" fill="white"/>
<path d="M42.9281 8.27266C42.9281 8.79075 42.7761 9.21523 42.4722 9.54823C42.1537 9.89053 41.7316 10.0613 41.2046 10.0613C40.6967 10.0613 40.2922 9.89767 39.9905 9.56896C39.6896 9.24095 39.5391 8.8272 39.5391 8.3284C39.5391 7.80674 39.694 7.37869 40.0052 7.0464C40.3164 6.71411 40.7348 6.54761 41.2619 6.54761C41.7698 6.54761 42.1779 6.71125 42.4869 7.03926C42.7805 7.35797 42.9281 7.76958 42.9281 8.27266ZM42.1302 8.29696C42.1302 7.98611 42.0612 7.71956 41.9239 7.49732C41.7624 7.22863 41.5327 7.09428 41.234 7.09428C40.9249 7.09428 40.6901 7.22863 40.5286 7.49732C40.3906 7.71956 40.3223 7.99039 40.3223 8.31054C40.3223 8.62139 40.3913 8.88794 40.5286 9.11018C40.6952 9.37887 40.9271 9.51322 41.2266 9.51322C41.5202 9.51322 41.7507 9.37673 41.9166 9.10303C42.059 8.8765 42.1302 8.60781 42.1302 8.29696Z" fill="white"/>
<path d="M48.6945 6.61621L47.6119 9.98486H46.9072L46.4587 8.52206C46.3449 8.1569 46.2525 7.79388 46.1805 7.43372H46.1666C46.0998 7.80388 46.0073 8.16619 45.8884 8.52206L45.412 9.98486H44.6993L43.6812 6.61621H44.4717L44.863 8.21764C44.9577 8.59638 45.0355 8.95726 45.0979 9.29884H45.1118C45.1691 9.01728 45.2637 8.65855 45.3973 8.22479L45.8884 6.61693H46.5152L46.9857 8.19049C47.0995 8.57423 47.192 8.94368 47.2632 9.29955H47.2845C47.3366 8.95297 47.4151 8.58352 47.5194 8.19049L47.9392 6.61693H48.6945V6.61621Z" fill="white"/>
<path d="M52.6826 9.98492H51.9134V8.05549C51.9134 7.46094 51.6814 7.16366 51.216 7.16366C50.9878 7.16366 50.8035 7.24513 50.6604 7.40877C50.5187 7.57242 50.4468 7.76536 50.4468 7.98617V9.98421H49.6775V7.57885C49.6775 7.283 49.668 6.96215 49.6497 6.61485H50.3257L50.3617 7.14151H50.3829C50.4725 6.97787 50.6061 6.84281 50.7815 6.7349C50.99 6.60913 51.2234 6.54553 51.4788 6.54553C51.8018 6.54553 52.0704 6.64701 52.284 6.85067C52.5497 7.10007 52.6826 7.47237 52.6826 7.96688V9.98492Z" fill="white"/>
<path d="M54.8037 9.98489H54.0352V5.07056H54.8037V9.98489Z" fill="white"/>
<path d="M59.3327 8.27266C59.3327 8.79075 59.1807 9.21523 58.8768 9.54823C58.5583 9.89053 58.1355 10.0613 57.6092 10.0613C57.1005 10.0613 56.6961 9.89767 56.3951 9.56896C56.0942 9.24095 55.9437 8.8272 55.9437 8.3284C55.9437 7.80674 56.0986 7.37869 56.4098 7.0464C56.721 6.71411 57.1394 6.54761 57.6657 6.54761C58.1744 6.54761 58.5818 6.71125 58.8915 7.03926C59.1851 7.35797 59.3327 7.76958 59.3327 8.27266ZM58.5341 8.29696C58.5341 7.98611 58.4651 7.71956 58.3278 7.49732C58.1671 7.22863 57.9366 7.09428 57.6386 7.09428C57.3288 7.09428 57.0939 7.22863 56.9332 7.49732C56.7952 7.71956 56.7269 7.99039 56.7269 8.31054C56.7269 8.62139 56.7959 8.88794 56.9332 9.11018C57.0998 9.37887 57.3317 9.51322 57.6312 9.51322C57.9248 9.51322 58.1546 9.37673 58.3205 9.10303C58.4636 8.8765 58.5341 8.60781 58.5341 8.29696Z" fill="white"/>
<path d="M63.0557 9.98486H62.365L62.3077 9.59683H62.2864C62.0501 9.90625 61.7132 10.0613 61.2757 10.0613C60.949 10.0613 60.6848 9.95913 60.4859 9.75618C60.3053 9.57181 60.215 9.34243 60.215 9.07016C60.215 8.65855 60.3912 8.34484 60.7457 8.1276C61.0995 7.91036 61.5972 7.80388 62.238 7.80888V7.746C62.238 7.30223 61.9987 7.0807 61.5194 7.0807C61.1781 7.0807 60.8771 7.16431 60.6173 7.3301L60.4609 6.83845C60.7824 6.64479 61.1795 6.54761 61.6478 6.54761C62.5521 6.54761 63.0058 7.0121 63.0058 7.94109V9.18164C63.0058 9.51822 63.0226 9.7862 63.0557 9.98486ZM62.2571 8.8272V8.30768C61.4085 8.29339 60.9843 8.51992 60.9843 8.98655C60.9843 9.16235 61.0327 9.29383 61.1318 9.38173C61.2309 9.46963 61.3572 9.51322 61.5076 9.51322C61.6765 9.51322 61.8343 9.46105 61.9781 9.35743C62.1227 9.2531 62.2115 9.1209 62.2446 8.95868C62.2527 8.92224 62.2571 8.87793 62.2571 8.8272Z" fill="white"/>
<path d="M67.4263 9.98489H66.7437L66.7077 9.44394H66.6864C66.4684 9.85555 66.097 10.0614 65.5751 10.0614C65.1582 10.0614 64.811 9.902 64.5357 9.58329C64.2605 9.26457 64.1232 8.85082 64.1232 8.34273C64.1232 7.79749 64.2722 7.35586 64.5717 7.01857C64.8616 6.70414 65.2169 6.54693 65.6397 6.54693C66.1043 6.54693 66.4295 6.69914 66.6145 7.00428H66.6292V5.07056H67.3991V9.07735C67.3991 9.40535 67.4079 9.70763 67.4263 9.98489ZM66.6292 8.56426V8.00258C66.6292 7.90539 66.6218 7.82679 66.6079 7.76676C66.5646 7.58668 66.4713 7.43518 66.3297 7.31299C66.1865 7.19079 66.014 7.12933 65.8151 7.12933C65.5281 7.12933 65.3035 7.2401 65.1384 7.46234C64.9747 7.68458 64.8917 7.96828 64.8917 8.31486C64.8917 8.64787 64.9703 8.91799 65.1281 9.12594C65.2947 9.34747 65.5193 9.45823 65.8005 9.45823C66.053 9.45823 66.2548 9.36605 66.4082 9.18096C66.5565 9.01017 66.6292 8.80437 66.6292 8.56426Z" fill="white"/>
<path d="M74.0055 8.27266C74.0055 8.79075 73.8535 9.21523 73.5496 9.54823C73.2311 9.89053 72.8097 10.0613 72.282 10.0613C71.7748 10.0613 71.3704 9.89767 71.0679 9.56896C70.767 9.24095 70.6165 8.8272 70.6165 8.3284C70.6165 7.80674 70.7714 7.37869 71.0826 7.0464C71.3938 6.71411 71.8122 6.54761 72.34 6.54761C72.8472 6.54761 73.256 6.71125 73.5643 7.03926C73.8579 7.35797 74.0055 7.76958 74.0055 8.27266ZM73.2083 8.29696C73.2083 7.98611 73.1393 7.71956 73.0021 7.49732C72.8398 7.22863 72.6108 7.09428 72.3114 7.09428C72.0031 7.09428 71.7682 7.22863 71.606 7.49732C71.468 7.71956 71.3997 7.99039 71.3997 8.31054C71.3997 8.62139 71.4687 8.88794 71.606 9.11018C71.7726 9.37887 72.0045 9.51322 72.304 9.51322C72.5976 9.51322 72.8288 9.37673 72.9947 9.10303C73.1364 8.8765 73.2083 8.60781 73.2083 8.29696Z" fill="white"/>
<path d="M78.1415 9.98492H77.373V8.05549C77.373 7.46094 77.1411 7.16366 76.675 7.16366C76.4467 7.16366 76.2624 7.24513 76.12 7.40877C75.9777 7.57242 75.9065 7.76536 75.9065 7.98617V9.98421H75.1365V7.57885C75.1365 7.283 75.1277 6.96215 75.1093 6.61485H75.7846L75.8206 7.14151H75.8419C75.9321 6.97787 76.0657 6.84281 76.2404 6.7349C76.4496 6.60913 76.6823 6.54553 76.9385 6.54553C77.2607 6.54553 77.5294 6.64701 77.743 6.85067C78.0094 7.10007 78.1415 7.47237 78.1415 7.96688V9.98492Z" fill="white"/>
<path d="M83.3184 7.17725H82.4714V8.8137C82.4714 9.2296 82.6218 9.43755 82.9198 9.43755C83.0578 9.43755 83.1723 9.42612 83.2626 9.40253L83.2824 9.97064C83.1305 10.0264 82.9308 10.0543 82.685 10.0543C82.3811 10.0543 82.1447 9.96421 81.9737 9.78413C81.8019 9.60405 81.7168 9.30106 81.7168 8.87587V7.17725H81.2111V6.61629H81.7168V5.99887L82.4706 5.77734V6.61558H83.3177V7.17725H83.3184Z" fill="white"/>
<path d="M87.391 9.98489H86.6211V8.06975C86.6211 7.46591 86.3891 7.16363 85.9245 7.16363C85.5678 7.16363 85.3241 7.33871 85.1905 7.68887C85.1677 7.76247 85.1545 7.85251 85.1545 7.95827V9.98418H84.386V5.07056H85.1545V7.10075H85.1692C85.4114 6.7313 85.7586 6.54693 86.2085 6.54693C86.5271 6.54693 86.7906 6.6484 86.9998 6.85207C87.2604 7.10575 87.391 7.48306 87.391 7.98186V9.98489Z" fill="white"/>
<path d="M91.5918 8.14114C91.5918 8.27548 91.5815 8.38839 91.5632 8.48057H89.2562C89.2665 8.81358 89.3766 9.06727 89.5902 9.24306C89.7854 9.40027 90.0372 9.47888 90.3455 9.47888C90.6868 9.47888 90.998 9.426 91.2784 9.31952L91.3988 9.83975C91.0707 9.97839 90.6846 10.0477 90.2376 10.0477C89.7017 10.0477 89.2797 9.89406 88.9743 9.58678C88.6675 9.2795 88.5156 8.86718 88.5156 8.3498C88.5156 7.84172 88.6572 7.41867 88.9428 7.08138C89.2408 6.72122 89.6437 6.54114 90.1524 6.54114C90.6501 6.54114 91.0281 6.72122 91.2835 7.08138C91.4898 7.36722 91.5918 7.72095 91.5918 8.14114ZM90.8578 7.94748C90.8637 7.72524 90.813 7.53372 90.7088 7.37222C90.5752 7.16427 90.3719 7.05994 90.0966 7.05994C89.8456 7.05994 89.6408 7.16141 89.4845 7.36508C89.3567 7.52729 89.2811 7.72095 89.2562 7.94748H90.8578Z" fill="white"/>
</svg>
