<svg width="104" height="31" viewBox="0 0 104 31" fill="none" xmlns="http://www.w3.org/2000/svg">
<path d="M100.148 0.0385742H3.85185C1.72453 0.0385742 0 1.71751 0 3.78857V26.2886C0 28.3596 1.72453 30.0386 3.85185 30.0386H100.148C102.275 30.0386 104 28.3596 104 26.2886V3.78857C104 1.71751 102.275 0.0385742 100.148 0.0385742Z" fill="black"/>
<path d="M100.148 0.638574C101.006 0.638574 101.829 0.970448 102.436 1.56119C103.043 2.15193 103.384 2.95314 103.384 3.78857V26.2886C103.384 27.124 103.043 27.9252 102.436 28.516C101.829 29.1067 101.006 29.4386 100.148 29.4386H3.85185C2.99373 29.4386 2.17075 29.1067 1.56397 28.516C0.957184 27.9252 0.616296 27.124 0.616296 26.2886V3.78857C0.616296 2.95314 0.957184 2.15193 1.56397 1.56119C2.17075 0.970448 2.99373 0.638574 3.85185 0.638574H100.148ZM100.148 0.0385742H3.85185C2.83028 0.0385742 1.85054 0.433662 1.12818 1.13692C0.405819 1.84019 0 2.79401 0 3.78857V26.2886C0 27.2831 0.405819 28.237 1.12818 28.9402C1.85054 29.6435 2.83028 30.0386 3.85185 30.0386H100.148C101.17 30.0386 102.149 29.6435 102.872 28.9402C103.594 28.237 104 27.2831 104 26.2886V3.78857C104 2.79401 103.594 1.84019 102.872 1.13692C102.149 0.433662 101.17 0.0385742 100.148 0.0385742Z" fill="#A6A6A6"/>
<path d="M52.493 16.3512C51.8461 16.3541 51.2146 16.5436 50.6782 16.8956C50.1418 17.2477 49.7246 17.7465 49.4791 18.3292C49.2337 18.9119 49.171 19.5523 49.2991 20.1697C49.4272 20.787 49.7402 21.3535 50.1987 21.7978C50.6572 22.2421 51.2406 22.5442 51.8753 22.666C52.51 22.7877 53.1675 22.7238 53.7648 22.4821C54.3622 22.2404 54.8726 21.8318 55.2317 21.308C55.5908 20.7841 55.7824 20.1684 55.7825 19.5387C55.7887 19.1171 55.7078 18.6986 55.5445 18.3082C55.3813 17.9177 55.1389 17.5632 54.832 17.2658C54.5251 16.9684 54.1598 16.7341 53.758 16.577C53.3561 16.4199 52.9259 16.3431 52.493 16.3512ZM52.493 21.4737C52.0951 21.5008 51.6981 21.4107 51.3536 21.2152C51.009 21.0197 50.7328 20.7278 50.5609 20.3775C50.389 20.0272 50.3293 19.6346 50.3896 19.2508C50.4499 18.867 50.6274 18.5097 50.899 18.2254C51.1707 17.9412 51.5239 17.743 51.9127 17.6567C52.3015 17.5705 52.708 17.6001 53.0794 17.7417C53.4507 17.8834 53.7697 18.1305 53.9948 18.4509C54.22 18.7714 54.3409 19.1504 54.3419 19.5387C54.3543 19.7847 54.316 20.0306 54.2292 20.262C54.1424 20.4933 54.0089 20.7055 53.8366 20.8858C53.6643 21.0661 53.4566 21.2111 53.2259 21.312C52.9951 21.413 52.7459 21.468 52.493 21.4737ZM45.3208 16.3512C44.6736 16.3526 44.0414 16.5408 43.5039 16.892C42.9665 17.2431 42.5481 17.7415 42.3015 18.324C42.0548 18.9066 41.9911 19.5473 42.1183 20.1651C42.2455 20.7829 42.5579 21.3502 43.0161 21.7952C43.4743 22.2402 44.0577 22.5431 44.6926 22.6655C45.3275 22.7878 45.9854 22.7243 46.5832 22.4828C47.181 22.2413 47.6919 21.8328 48.0513 21.3088C48.4108 20.7847 48.6026 20.1688 48.6026 19.5387C48.6089 19.1171 48.528 18.6986 48.3647 18.3082C48.2014 17.9177 47.9591 17.5632 47.6522 17.2658C47.3452 16.9684 46.98 16.7341 46.5781 16.577C46.1763 16.4199 45.7461 16.3431 45.3131 16.3512H45.3208ZM45.3208 21.4737C44.9228 21.5023 44.5251 21.4136 44.1796 21.2191C43.8341 21.0246 43.5567 20.7333 43.3836 20.3832C43.2105 20.0331 43.1497 19.6404 43.209 19.2562C43.2684 18.8719 43.4452 18.514 43.7164 18.2289C43.9876 17.9439 44.3407 17.7449 44.7297 17.658C45.1187 17.571 45.5256 17.6001 45.8973 17.7414C46.2691 17.8827 46.5886 18.1298 46.8141 18.4503C47.0397 18.7709 47.1609 19.1501 47.162 19.5387C47.1744 19.7847 47.1361 20.0306 47.0493 20.262C46.9626 20.4933 46.8291 20.7055 46.6568 20.8858C46.4844 21.0661 46.2768 21.2111 46.046 21.312C45.8152 21.413 45.566 21.468 45.3131 21.4737H45.3208ZM36.7774 17.3337V18.6837H40.1054C40.0532 19.3195 39.7817 19.9195 39.335 20.3862C39.0021 20.7163 38.6018 20.975 38.16 21.1455C37.7182 21.316 37.2446 21.3946 36.7697 21.3762C35.789 21.3762 34.8485 20.9969 34.155 20.3217C33.4615 19.6466 33.0719 18.7309 33.0719 17.7762C33.0719 16.8214 33.4615 15.9057 34.155 15.2306C34.8485 14.5554 35.789 14.1762 36.7697 14.1762C37.7079 14.1613 38.6138 14.5092 39.2888 15.1437L40.2672 14.1912C39.8115 13.7419 39.2678 13.3863 38.6684 13.1454C38.0689 12.9045 37.4259 12.7832 36.7774 12.7887C36.0926 12.7627 35.4094 12.8716 34.7688 13.1089C34.1282 13.3461 33.5434 13.7069 33.0494 14.1694C32.5554 14.632 32.1625 15.1869 31.894 15.8008C31.6256 16.4148 31.4872 17.0752 31.4872 17.7424C31.4872 18.4097 31.6256 19.0701 31.894 19.684C32.1625 20.298 32.5554 20.8528 33.0494 21.3154C33.5434 21.778 34.1282 22.1387 34.7688 22.3759C35.4094 22.6132 36.0926 22.7221 36.7774 22.6962C37.4368 22.7252 38.0949 22.6163 38.7075 22.377C39.3201 22.1377 39.8729 21.7734 40.3288 21.3087C41.1359 20.4454 41.5668 19.3105 41.5306 18.1437C41.5331 17.8594 41.5073 17.5756 41.4536 17.2962L36.7774 17.3337ZM71.6829 18.3837C71.482 17.8082 71.1063 17.3058 70.6055 16.9428C70.1048 16.5798 69.5026 16.3735 68.8787 16.3512C68.4574 16.3504 68.0403 16.4337 67.6533 16.5961C67.2663 16.7584 66.9176 16.9963 66.6288 17.2951C66.34 17.5938 66.1172 17.947 65.9741 18.3329C65.8311 18.7189 65.7709 19.1292 65.7973 19.5387C65.7879 19.9578 65.8654 20.3746 66.0252 20.7639C66.1849 21.1533 66.4237 21.5073 66.7271 21.8048C67.0306 22.1024 67.3925 22.3373 67.7913 22.4956C68.1901 22.6539 68.6176 22.7323 69.0482 22.7262C69.5871 22.729 70.1183 22.6017 70.5942 22.3556C71.0701 22.1095 71.476 21.7524 71.7753 21.3162L70.6583 20.5662C70.4916 20.8367 70.2556 21.0606 69.9733 21.2157C69.6911 21.3708 69.3723 21.452 69.0482 21.4512C68.7145 21.4635 68.3847 21.3779 68.1017 21.2053C67.8187 21.0328 67.5955 20.7813 67.4613 20.4837L71.8447 18.7212L71.6829 18.3837ZM67.2147 19.4487C67.1991 19.2167 67.2312 18.984 67.3091 18.7642C67.387 18.5445 67.5092 18.3421 67.6685 18.1689C67.8277 17.9956 68.0209 17.8551 68.2367 17.7555C68.4524 17.6559 68.6864 17.5991 68.925 17.5887C69.1735 17.5727 69.4213 17.6282 69.6377 17.7482C69.8541 17.8682 70.0295 18.0474 70.1422 18.2637L67.2147 19.4487ZM63.6556 22.5387H65.0962V13.1637H63.6556V22.5387ZM61.2983 17.0637H61.2444C61.0273 16.8273 60.7613 16.6384 60.4639 16.5091C60.1665 16.3798 59.8444 16.3132 59.5187 16.3137C58.6769 16.3534 57.883 16.707 57.3016 17.3011C56.7202 17.8952 56.3959 18.6843 56.3959 19.5049C56.3959 20.3255 56.7202 21.1146 57.3016 21.7087C57.883 22.3028 58.6769 22.6564 59.5187 22.6962C59.8452 22.7015 60.1689 22.6371 60.467 22.5075C60.7652 22.378 61.0305 22.1863 61.2444 21.9462H61.2906V22.4037C61.2906 23.6262 60.6204 24.2787 59.5419 24.2787C59.1826 24.2705 58.8341 24.1584 58.5405 23.9567C58.2469 23.7551 58.0216 23.4729 57.8933 23.1462L56.6376 23.6562C56.8739 24.2159 57.2767 24.6942 57.7941 25.0296C58.3116 25.365 58.9202 25.5423 59.5419 25.5387C61.229 25.5387 62.6233 24.5712 62.6233 22.2162V16.5387H61.2983V17.0637ZM59.6497 21.4737C59.1528 21.431 58.6903 21.2087 58.3534 20.8505C58.0165 20.4924 57.8296 20.0243 57.8296 19.5387C57.8296 19.053 58.0165 18.585 58.3534 18.2268C58.6903 17.8686 59.1528 17.6463 59.6497 17.6037C59.8961 17.616 60.1375 17.6762 60.3596 17.7807C60.5817 17.8852 60.7801 18.032 60.943 18.2123C61.106 18.3926 61.2303 18.6029 61.3085 18.8307C61.3867 19.0584 61.4173 19.2992 61.3984 19.5387C61.4195 19.7792 61.3902 20.0214 61.3123 20.2505C61.2344 20.4797 61.1096 20.6911 60.9454 20.872C60.7813 21.0529 60.5811 21.1995 60.3571 21.3029C60.133 21.4063 59.8898 21.4644 59.642 21.4737H59.6497ZM78.4313 13.1637H74.9878V22.5387H76.4284V18.9837H78.439C78.8496 19.0124 79.2619 18.9584 79.6501 18.8252C80.0383 18.692 80.3941 18.4823 80.6955 18.2093C80.9968 17.9363 81.2371 17.6057 81.4014 17.2383C81.5657 16.8709 81.6505 16.4744 81.6505 16.0737C81.6505 15.6729 81.5657 15.2765 81.4014 14.909C81.2371 14.5416 80.9968 14.2111 80.6955 13.938C80.3941 13.665 80.0383 13.4553 79.6501 13.3221C79.2619 13.1889 78.8496 13.1349 78.439 13.1637H78.4313ZM78.4313 17.6637H76.4207V14.4687H78.4622C78.9004 14.4687 79.3207 14.6382 79.6306 14.9399C79.9405 15.2416 80.1146 15.6507 80.1146 16.0774C80.1146 16.5041 79.9405 16.9133 79.6306 17.215C79.3207 17.5167 78.9004 17.6862 78.4622 17.6862L78.4313 17.6637ZM87.3137 16.3137C86.7892 16.2831 86.2671 16.4025 85.8113 16.657C85.3556 16.9114 84.9861 17.29 84.7484 17.7462L86.0272 18.2637C86.1533 18.0374 86.3442 17.8518 86.5767 17.7292C86.8092 17.6067 87.0733 17.5527 87.3368 17.5737C87.5197 17.5529 87.705 17.5677 87.8819 17.6174C88.0588 17.6671 88.2238 17.7505 88.3672 17.8629C88.5106 17.9753 88.6296 18.1144 88.7172 18.2721C88.8049 18.4297 88.8594 18.6028 88.8776 18.7812V18.8787C88.4149 18.6402 87.8989 18.5165 87.3753 18.5187C85.9964 18.5187 84.602 19.2687 84.602 20.6262C84.6156 20.9156 84.6887 21.1995 84.8169 21.461C84.9452 21.7224 85.1259 21.9562 85.3486 22.1485C85.5712 22.3408 85.8312 22.4877 86.1132 22.5804C86.3951 22.6732 86.6933 22.71 86.9901 22.6887C87.3529 22.714 87.716 22.6438 88.0414 22.4855C88.3667 22.3271 88.6422 22.0864 88.839 21.7887H88.8853V22.5387H90.2719V18.9312C90.2719 17.2887 88.9931 16.3362 87.3522 16.3362L87.3137 16.3137ZM87.1365 21.4512C86.6666 21.4512 86.0118 21.2187 86.0118 20.6562C86.0118 19.9062 86.8284 19.6587 87.5525 19.6587C88.0102 19.6477 88.4624 19.7565 88.8621 19.9737C88.814 20.3797 88.6167 20.7551 88.3067 21.0308C87.9967 21.3064 87.5948 21.4637 87.175 21.4737L87.1365 21.4512ZM95.3256 16.5387L93.677 20.6037H93.6307L91.9205 16.5387H90.3798L92.9451 22.2237L91.4814 25.3812H92.9836L96.9279 16.5387H95.3256ZM82.3756 22.5387H83.8162V13.1637H82.3756V22.5387Z" fill="white"/>
<path d="M36.4829 7.76548C36.496 8.04057 36.4515 8.31538 36.3522 8.57323C36.2529 8.83109 36.1008 9.0666 35.9051 9.26548C35.6866 9.48642 35.4228 9.66006 35.1308 9.77507C34.8388 9.89008 34.5251 9.94389 34.2103 9.93298C33.7327 9.92934 33.2667 9.78854 32.8709 9.52824C32.4751 9.26793 32.167 8.89969 31.9852 8.46966C31.8034 8.03963 31.7561 7.56693 31.849 7.11079C31.942 6.65466 32.1711 6.23537 32.5078 5.90548C32.729 5.68556 32.9943 5.51219 33.2871 5.39609C33.58 5.27998 33.8942 5.22362 34.2103 5.23048C34.536 5.22942 34.8584 5.29323 35.1579 5.41798C35.4366 5.52744 35.6848 5.69964 35.882 5.92048L35.4737 6.31798C35.3199 6.13992 35.1258 5.99912 34.9065 5.9067C34.6872 5.81429 34.4489 5.77278 34.2103 5.78548C33.9697 5.78433 33.7313 5.8305 33.5094 5.92122C33.2876 6.01194 33.0868 6.14534 32.9192 6.31343C32.7516 6.48152 32.6205 6.68083 32.534 6.89941C32.4474 7.11799 32.407 7.35135 32.4153 7.58548C32.4103 7.93508 32.5117 8.2783 32.7068 8.57185C32.9019 8.8654 33.1819 9.09613 33.5115 9.23492C33.8411 9.37371 34.2056 9.41435 34.5589 9.35172C34.9122 9.28908 35.2386 9.12598 35.4968 8.88298C35.7339 8.63288 35.8706 8.3081 35.882 7.96798H34.2103V7.42798H36.4521C36.4726 7.53936 36.4829 7.65231 36.4829 7.76548ZM40.0112 5.89048H37.9312V7.31548H39.8263V7.85548H37.9312V9.28048H40.0112V9.83548H37.3149V5.33548H40.0112V5.89048ZM42.538 9.83548H41.9448V5.89048H40.6506V5.33548H43.863V5.89048H42.538V9.83548ZM46.1279 9.83548V5.33548H46.7211V9.83548H46.1279ZM49.3558 9.83548H48.7626V5.89048H47.4684V5.33548H50.6423V5.89048H49.3558V9.83548ZM56.6589 9.25048C56.2085 9.68649 55.5992 9.93123 54.9641 9.93123C54.3289 9.93123 53.7196 9.68649 53.2693 9.25048C52.8315 8.79937 52.5876 8.20231 52.5876 7.58173C52.5876 6.96115 52.8315 6.36408 53.2693 5.91298C53.4912 5.69528 53.7553 5.52251 54.0462 5.4046C54.337 5.2867 54.649 5.226 54.9641 5.226C55.2792 5.226 55.5911 5.2867 55.882 5.4046C56.1729 5.52251 56.4369 5.69528 56.6589 5.91298C57.0984 6.36322 57.3434 6.96061 57.3434 7.58173C57.3434 8.20284 57.0984 8.80023 56.6589 9.25048ZM53.7084 8.87548C54.0419 9.19882 54.4934 9.38036 54.9641 9.38036C55.4348 9.38036 55.8863 9.19882 56.2198 8.87548C56.5489 8.52224 56.7312 8.06239 56.7312 7.58548C56.7312 7.10856 56.5489 6.64871 56.2198 6.29548C55.8863 5.97214 55.4348 5.7906 54.9641 5.7906C54.4934 5.7906 54.0419 5.97214 53.7084 6.29548C53.3792 6.64871 53.1969 7.10856 53.1969 7.58548C53.1969 8.06239 53.3792 8.52224 53.7084 8.87548ZM58.1765 9.83548V5.33548H58.9007L61.1502 8.83798V5.33548H61.7433V9.83548H61.127L58.7774 6.16798V9.83548H58.1765Z" fill="white"/>
<path fill-rule="evenodd" clip-rule="evenodd" d="M54.9641 5.301C54.6592 5.301 54.3573 5.35974 54.0758 5.47384C53.7946 5.58782 53.5393 5.7548 53.3246 5.96516C52.9008 6.40226 52.6647 6.98061 52.6647 7.58173C52.6647 8.18277 52.9007 8.76104 53.3244 9.19813C53.7603 9.61964 54.3497 9.85623 54.9641 9.85623C55.5785 9.85623 56.168 9.61961 56.6038 9.19804C57.0292 8.76182 57.2664 8.18326 57.2664 7.58173C57.2664 6.98012 57.0291 6.40149 56.6036 5.96525C56.3889 5.75485 56.1336 5.58784 55.8524 5.47384C55.5709 5.35974 55.269 5.301 54.9641 5.301ZM54.0165 5.33537C54.3168 5.21366 54.6388 5.151 54.9641 5.151C55.2893 5.151 55.6113 5.21366 55.9116 5.33537C56.2119 5.45707 56.4844 5.63542 56.7136 5.86014L56.7148 5.8613C57.1678 6.32549 57.4205 6.94138 57.4205 7.58173C57.4205 8.22207 57.1678 8.83795 56.7147 9.30214L56.7132 9.30368C56.2484 9.75366 55.6196 10.0062 54.9641 10.0062C54.3086 10.0062 53.6797 9.75364 53.2149 9.30366L53.2132 9.30201C52.762 8.83698 52.5106 8.22146 52.5106 7.58173C52.5106 6.942 52.762 6.3265 53.2133 5.86147L53.2146 5.86012C53.4437 5.63541 53.7163 5.45707 54.0165 5.33537ZM34.2086 5.30546C33.903 5.29883 33.5993 5.35332 33.3162 5.46555C33.0331 5.57778 32.7767 5.74538 32.5628 5.95796L32.5624 5.95834C32.2365 6.27776 32.0146 6.68373 31.9246 7.12539C31.8346 7.56704 31.8805 8.02474 32.0565 8.44112C32.2325 8.8575 32.5308 9.21405 32.9141 9.46609C33.2973 9.71813 33.7484 9.85445 34.2109 9.85798L34.213 9.858C34.517 9.86853 34.8199 9.81661 35.1019 9.70555C35.3838 9.5945 35.6386 9.42685 35.8495 9.21354C36.038 9.02201 36.1844 8.79521 36.2801 8.5469C36.3757 8.29856 36.4185 8.03389 36.4059 7.76895L36.4829 7.76548L36.4059 7.76545C36.4059 7.67759 36.3994 7.58988 36.3865 7.50298H34.2873V7.89298H35.9616L35.959 7.97043C35.947 8.32855 35.803 8.67051 35.5534 8.93384L35.5504 8.93699C35.2813 9.19029 34.941 9.36022 34.5727 9.42551C34.2044 9.4908 33.8245 9.44843 33.4809 9.30376C33.1374 9.15909 32.8455 8.91858 32.6421 8.61259C32.4391 8.30712 32.3334 7.95003 32.3383 7.58624C32.3299 7.34263 32.372 7.09986 32.4621 6.87243C32.5524 6.64442 32.6891 6.43652 32.8639 6.26119C33.0388 6.08586 33.2482 5.9467 33.4796 5.85207C33.7103 5.75773 33.9582 5.70957 34.2084 5.71047C34.4581 5.69753 34.7076 5.74113 34.9371 5.83788C35.1416 5.92409 35.3254 6.0504 35.4771 6.20862L35.7757 5.91788C35.5949 5.73077 35.3743 5.58384 35.129 5.48753L35.1275 5.48694C34.8378 5.36622 34.5257 5.30445 34.2106 5.30548L34.2086 5.30546ZM36.5599 7.76375C36.5732 8.04841 36.5271 8.33275 36.4243 8.59957C36.3214 8.86694 36.1636 9.11114 35.9607 9.31736C35.7348 9.54589 35.4617 9.72563 35.1597 9.8446C34.8579 9.96343 34.5339 10.0191 34.2086 10.008C33.7162 10.004 33.2359 9.85876 32.8278 9.59039C32.4194 9.32182 32.1015 8.94189 31.914 8.49821C31.7264 8.05452 31.6775 7.56681 31.7735 7.0962C31.8693 6.62567 32.1057 6.19314 32.4529 5.8528C32.6815 5.62565 32.9556 5.44657 33.2581 5.32663C33.5604 5.20677 33.8847 5.14853 34.211 5.15547C34.5466 5.15452 34.8789 5.22027 35.1874 5.34872C35.4772 5.46263 35.7351 5.64169 35.9401 5.87127L35.9873 5.92405L35.4688 6.42883L35.4147 6.36624C35.2687 6.19709 35.0842 6.06333 34.8759 5.97553C34.6676 5.88773 34.4412 5.84831 34.2145 5.86037L34.2099 5.86061C33.9797 5.85951 33.7515 5.90356 33.5393 5.99037C33.327 6.07718 33.1349 6.20483 32.9745 6.36567C32.8141 6.52652 32.6887 6.71724 32.6058 6.9264C32.523 7.13556 32.4844 7.35885 32.4923 7.58289L32.4925 7.58653C32.4876 7.92132 32.5847 8.25 32.7715 8.53111C32.9583 8.81222 33.2264 9.03317 33.5421 9.16608C33.8578 9.299 34.2068 9.33791 34.5451 9.27793C34.8828 9.21808 35.1947 9.06242 35.4417 8.83054C35.6472 8.61298 35.7728 8.336 35.8001 8.04298H34.1333V7.35298H36.5165L36.5279 7.41472C36.5492 7.52992 36.5599 7.64672 36.5599 7.76375ZM37.2379 5.26048H40.0882V5.96548H38.0082V7.24048H39.9033V7.93048H38.0082V9.20548H40.0882V9.91048H37.2379V5.26048ZM37.3919 5.41048V9.76048H39.9342V9.35548H37.8541V7.78048H39.7493V7.39048H37.8541V5.81548H39.9342V5.41048H37.3919ZM40.5736 5.26048H43.9401V5.96548H42.615V9.91048H41.8678V5.96548H40.5736V5.26048ZM40.7276 5.41048V5.81548H42.0219V9.76048H42.461V5.81548H43.786V5.41048H40.7276ZM46.0509 5.26048H46.7981V9.91048H46.0509V5.26048ZM46.205 5.41048V9.76048H46.6441V5.41048H46.205ZM47.3913 5.26048H50.7193V5.96548H49.4328V9.91048H48.6856V5.96548H47.3913V5.26048ZM47.5454 5.41048V5.81548H48.8396V9.76048H49.2787V5.81548H50.5653V5.41048H47.5454ZM58.0995 5.26048H58.9434L61.0731 8.57656V5.26048H61.8204V9.91048H61.0843L58.8544 6.42994V9.91048H58.0995V5.26048ZM58.2536 5.41048V9.76048H58.7004V5.90601L61.1698 9.76048H61.6663V5.41048H61.2272V9.09939L58.858 5.41048H58.2536ZM53.654 6.24233C54.002 5.90499 54.473 5.7156 54.9641 5.7156C55.4551 5.7156 55.9262 5.90499 56.2741 6.24233L56.2769 6.24502C56.6189 6.61206 56.8083 7.08993 56.8083 7.58548C56.8083 8.08102 56.6188 8.55883 56.2768 8.92587L56.2742 8.92869C55.9263 9.26603 55.4551 9.45536 54.9641 9.45536C54.473 9.45536 54.002 9.26596 53.654 8.92862L53.7084 8.87548L53.6513 8.92587C53.3093 8.55883 53.1199 8.08102 53.1199 7.58548C53.1199 7.08993 53.3093 6.61212 53.6513 6.24509L53.654 6.24233ZM53.7641 8.82368C54.0831 9.13218 54.5144 9.30536 54.9641 9.30536C55.4137 9.30536 55.8451 9.13218 56.164 8.82368C56.4795 8.48443 56.6542 8.04313 56.6542 7.58548C56.6542 7.12782 56.4795 6.68652 56.164 6.34727C55.8451 6.03877 55.4137 5.8656 54.9641 5.8656C54.5144 5.8656 54.0831 6.03877 53.7641 6.34727C53.4487 6.68652 53.274 7.12782 53.274 7.58548C53.274 8.04313 53.4487 8.48443 53.7641 8.82368Z" fill="white"/>
<path d="M8.04262 5.69361C7.79153 5.98695 7.66479 6.36246 7.68825 6.74361V23.3336C7.66479 23.7148 7.79153 24.0903 8.04262 24.3836L8.09654 24.4361L17.6414 15.1511V14.9336L8.09654 5.64111L8.04262 5.69361Z" fill="url(#paint0_linear_32_320)"/>
<path d="M20.7999 18.2486L17.6414 15.1511V14.9336L20.7999 11.8286L20.8693 11.8661L24.6518 13.9586C25.7303 14.5511 25.7303 15.5261 24.6518 16.1261L20.8847 18.2111L20.7999 18.2486Z" fill="url(#paint1_linear_32_320)"/>
<path d="M20.8924 18.2036L17.6414 15.0386L8.0426 24.3836C8.26244 24.5717 8.54287 24.6792 8.83545 24.6874C9.12803 24.6956 9.41436 24.6041 9.64497 24.4286L20.9001 18.2036" fill="url(#paint2_linear_32_320)"/>
<path d="M20.8923 11.8736L9.63716 5.64861C9.40655 5.47312 9.12022 5.38157 8.82764 5.38979C8.53506 5.39801 8.25462 5.50547 8.03479 5.69361L17.6413 15.0386L20.8923 11.8736Z" fill="url(#paint3_linear_32_320)"/>
<path opacity="0.2" d="M20.7999 18.1361L9.63727 24.3236C9.41486 24.4855 9.1446 24.573 8.8669 24.573C8.58919 24.573 8.31894 24.4855 8.09653 24.3236L8.0426 24.3761L8.09653 24.4286C8.31844 24.5917 8.58888 24.6799 8.8669 24.6799C9.14492 24.6799 9.41536 24.5917 9.63727 24.4286L20.8924 18.2036L20.7999 18.1361Z" fill="black"/>
<path opacity="0.12" d="M8.04262 24.2786C7.79153 23.9852 7.66479 23.6097 7.68825 23.2286V23.3411C7.66479 23.7222 7.79153 24.0977 8.04262 24.3911L8.09654 24.3386L8.04262 24.2786ZM24.6518 16.0136L20.7999 18.1361L20.8693 18.2036L24.6518 16.1186C24.8664 16.0204 25.0507 15.8689 25.1859 15.6793C25.3212 15.4896 25.4027 15.2686 25.4222 15.0386C25.3788 15.2476 25.2869 15.4442 25.1533 15.6132C25.0198 15.7822 24.8482 15.9192 24.6518 16.0136Z" fill="black"/>
<path opacity="0.25" d="M9.6371 5.75328L24.6516 14.0633C24.848 14.1577 25.0196 14.2946 25.1531 14.4637C25.2867 14.6327 25.3787 14.8293 25.422 15.0383C25.4025 14.8082 25.321 14.5872 25.1857 14.3976C25.0505 14.208 24.8662 14.0564 24.6516 13.9583L9.6371 5.64828C8.55858 5.05578 7.68036 5.55078 7.68036 6.75078V6.86328C7.70347 5.65578 8.56629 5.16078 9.6371 5.75328Z" fill="white"/>
<defs>
<linearGradient id="paint0_linear_32_320" x1="16.794" y1="6.57111" x2="4.21354" y2="19.4933" gradientUnits="userSpaceOnUse">
<stop stop-color="#00A0FF"/>
<stop offset="0.01" stop-color="#00A1FF"/>
<stop offset="0.26" stop-color="#00BEFF"/>
<stop offset="0.51" stop-color="#00D2FF"/>
<stop offset="0.76" stop-color="#00DFFF"/>
<stop offset="1" stop-color="#00E3FF"/>
</linearGradient>
<linearGradient id="paint1_linear_32_320" x1="26.0616" y1="15.0386" x2="7.42631" y2="15.0386" gradientUnits="userSpaceOnUse">
<stop stop-color="#FFE000"/>
<stop offset="0.41" stop-color="#FFBD00"/>
<stop offset="0.78" stop-color="#FFA500"/>
<stop offset="1" stop-color="#FF9C00"/>
</linearGradient>
<linearGradient id="paint2_linear_32_320" x1="19.1282" y1="16.7636" x2="2.06416" y2="34.2834" gradientUnits="userSpaceOnUse">
<stop stop-color="#FF3A44"/>
<stop offset="1" stop-color="#C31162"/>
</linearGradient>
<linearGradient id="paint3_linear_32_320" x1="5.62353" y1="0.173611" x2="13.2408" y2="7.99776" gradientUnits="userSpaceOnUse">
<stop stop-color="#32A071"/>
<stop offset="0.07" stop-color="#2DA771"/>
<stop offset="0.48" stop-color="#15CF74"/>
<stop offset="0.8" stop-color="#06E775"/>
<stop offset="1" stop-color="#00F076"/>
</linearGradient>
</defs>
</svg>
